<?xml version="1.0" encoding="UTF-8"?>
<svg width="42px" height="42px" viewBox="0 0 42 42" version="1.1" xmlns="http://www.w3.org/2000/svg" xmlns:xlink="http://www.w3.org/1999/xlink">
    <title>Artboard</title>
    <g id="Artboard" stroke="none" stroke-width="1" fill="none" fill-rule="evenodd">
        <g id="Group-2" transform="translate(2.000000, 2.000000)" fill="#D90429">
            <g id="Group">
                <path d="M26,0 C26.5522847,0 27,0.30104991 27,0.672413793 L27,38.3275862 C27,38.6989501 26.5522847,39 26,39 C25.4477153,39 25,38.6989501 25,38.3275862 L25,0.672413793 C25,0.30104991 25.4477153,0 26,0 Z" id="Rectangle"></path>
                <path d="M39,26 C39,26.5522847 38.6989501,27 38.3275862,27 L0.672413793,27 C0.30104991,27 0,26.5522847 0,26 C0,25.4477153 0.30104991,25 0.672413793,25 L38.3275862,25 C38.6989501,25 39,25.4477153 39,26 Z" id="Rectangle-Copy-2"></path>
                <path d="M39,12 C39,12.5522847 38.6989501,13 38.3275862,13 L0.672413793,13 C0.30104991,13 0,12.5522847 0,12 C0,11.4477153 0.30104991,11 0.672413793,11 L38.3275862,11 C38.6989501,11 39,11.4477153 39,12 Z" id="Rectangle-Copy-3"></path>
                <path d="M12,0 C12.5522847,0 13,0.30104991 13,0.672413793 L13,38.3275862 C13,38.6989501 12.5522847,39 12,39 C11.4477153,39 11,38.6989501 11,38.3275862 L11,0.672413793 C11,0.30104991 11.4477153,0 12,0 Z" id="Rectangle-Copy"></path>
            </g>
            <polygon id="Star" points="10.2950041 13.8283843 7.00304586 12.1744975 10.1716157 10.2950041 11.8255025 7.00304586 13.7049959 10.1716157 16.9969541 11.8255025 13.8283843 13.7049959 12.1744975 16.9969541"></polygon>
            <polygon id="Star-Copy" points="24.2950041 13.8283843 21.0030459 12.1744975 24.1716157 10.2950041 25.8255025 7.00304586 27.7049959 10.1716157 30.9969541 11.8255025 27.8283843 13.7049959 26.1744975 16.9969541"></polygon>
            <polygon id="Star-Copy-2" points="24.2950041 27.8283843 21.0030459 26.1744975 24.1716157 24.2950041 25.8255025 21.0030459 27.7049959 24.1716157 30.9969541 25.8255025 27.8283843 27.7049959 26.1744975 30.9969541"></polygon>
            <polygon id="Star-Copy-3" points="10.2950041 27.8283843 7.00304586 26.1744975 10.1716157 24.2950041 11.8255025 21.0030459 13.7049959 24.1716157 16.9969541 25.8255025 13.8283843 27.7049959 12.1744975 30.9969541"></polygon>
        </g>
        <path d="M17.1796875,3.97070312 C18.7473958,6.47167969 20.3151042,8.97265625 21.8828125,11.4736328" id="Path" stroke="#044FD9"></path>
        <path d="M16.5380859,10.9697266 C18.4580078,9.18782552 20.3779297,7.40592448 22.2978516,5.62402344" id="Path-2" stroke="#044FD9"></path>
        <path d="M17.7011719,18.2109375 C19.3736979,20.4335938 21.046224,22.65625 22.71875,24.8789062" id="Path-3" stroke="#044FD9"></path>
        <path d="M17.0732422,24.8134766 C19.583659,22.6891275 22.0940754,20.5647788 24.6044922,18.4404297" id="Path-4" stroke="#044FD9"></path>
        <path d="M17.9580078,32.1269531 C19.851888,34.2281901 21.7457682,36.3294271 23.6396484,38.4306641" id="Path-5" stroke="#044FD9"></path>
        <path d="M17.3583984,39.5917969 C19.3723958,37.4459635 21.3863932,35.3001302 23.4003906,33.1542969" id="Path-6" stroke="#044FD9"></path>
    </g>
</svg>