<?xml version="1.0" encoding="UTF-8"?>
<svg width="42px" height="42px" viewBox="0 0 42 42" version="1.1" xmlns="http://www.w3.org/2000/svg" xmlns:xlink="http://www.w3.org/1999/xlink">
    <title>Artboard</title>
    <g id="Artboard" stroke="none" stroke-width="1" fill="none" fill-rule="evenodd">
        <g id="Group-2" transform="translate(2.000000, 2.000000)" fill="#D90429">
            <g id="Group">
                <path d="M26,0 C26.5522847,0 27,0.30104991 27,0.672413793 L27,38.3275862 C27,38.6989501 26.5522847,39 26,39 C25.4477153,39 25,38.6989501 25,38.3275862 L25,0.672413793 C25,0.30104991 25.4477153,0 26,0 Z" id="Rectangle"></path>
                <path d="M39,26 C39,26.5522847 38.6989501,27 38.3275862,27 L0.672413793,27 C0.30104991,27 0,26.5522847 0,26 C0,25.4477153 0.30104991,25 0.672413793,25 L38.3275862,25 C38.6989501,25 39,25.4477153 39,26 Z" id="Rectangle-Copy-2"></path>
                <path d="M39,12 C39,12.5522847 38.6989501,13 38.3275862,13 L0.672413793,13 C0.30104991,13 0,12.5522847 0,12 C0,11.4477153 0.30104991,11 0.672413793,11 L38.3275862,11 C38.6989501,11 39,11.4477153 39,12 Z" id="Rectangle-Copy-3"></path>
                <path d="M12,0 C12.5522847,0 13,0.30104991 13,0.672413793 L13,38.3275862 C13,38.6989501 12.5522847,39 12,39 C11.4477153,39 11,38.6989501 11,38.3275862 L11,0.672413793 C11,0.30104991 11.4477153,0 12,0 Z" id="Rectangle-Copy"></path>
            </g>
            <polygon id="Star" points="10.2950041 13.8283843 7.00304586 12.1744975 10.1716157 10.2950041 11.8255025 7.00304586 13.7049959 10.1716157 16.9969541 11.8255025 13.8283843 13.7049959 12.1744975 16.9969541"></polygon>
            <polygon id="Star-Copy" points="24.2950041 13.8283843 21.0030459 12.1744975 24.1716157 10.2950041 25.8255025 7.00304586 27.7049959 10.1716157 30.9969541 11.8255025 27.8283843 13.7049959 26.1744975 16.9969541"></polygon>
            <polygon id="Star-Copy-2" points="24.2950041 27.8283843 21.0030459 26.1744975 24.1716157 24.2950041 25.8255025 21.0030459 27.7049959 24.1716157 30.9969541 25.8255025 27.8283843 27.7049959 26.1744975 30.9969541"></polygon>
            <polygon id="Star-Copy-3" points="10.2950041 27.8283843 7.00304586 26.1744975 10.1716157 24.2950041 11.8255025 21.0030459 13.7049959 24.1716157 16.9969541 25.8255025 13.8283843 27.7049959 12.1744975 30.9969541"></polygon>
        </g>
    </g>
</svg>