<?xml version="1.0" encoding="UTF-8"?>
<svg width="42px" height="42px" viewBox="0 0 42 42" version="1.1" xmlns="http://www.w3.org/2000/svg" xmlns:xlink="http://www.w3.org/1999/xlink">
    <title>Artboard</title>
    <g id="Artboard" stroke="none" stroke-width="1" fill="none" fill-rule="evenodd">
        <g id="Group-2" transform="translate(2.000000, 2.000000)" fill="#D90429">
            <g id="Group">
                <path d="M26,0 C26.5522847,0 27,0.30104991 27,0.672413793 L27,38.3275862 C27,38.6989501 26.5522847,39 26,39 C25.4477153,39 25,38.6989501 25,38.3275862 L25,0.672413793 C25,0.30104991 25.4477153,0 26,0 Z" id="Rectangle"></path>
                <path d="M39,26 C39,26.5522847 38.6989501,27 38.3275862,27 L0.672413793,27 C0.30104991,27 0,26.5522847 0,26 C0,25.4477153 0.30104991,25 0.672413793,25 L38.3275862,25 C38.6989501,25 39,25.4477153 39,26 Z" id="Rectangle-Copy-2"></path>
                <path d="M39,12 C39,12.5522847 38.6989501,13 38.3275862,13 L0.672413793,13 C0.30104991,13 0,12.5522847 0,12 C0,11.4477153 0.30104991,11 0.672413793,11 L38.3275862,11 C38.6989501,11 39,11.4477153 39,12 Z" id="Rectangle-Copy-3"></path>
                <path d="M12,0 C12.5522847,0 13,0.30104991 13,0.672413793 L13,38.3275862 C13,38.6989501 12.5522847,39 12,39 C11.4477153,39 11,38.6989501 11,38.3275862 L11,0.672413793 C11,0.30104991 11.4477153,0 12,0 Z" id="Rectangle-Copy"></path>
            </g>
            <polygon id="Star" points="10.2950041 13.8283843 7.00304586 12.1744975 10.1716157 10.2950041 11.8255025 7.00304586 13.7049959 10.1716157 16.9969541 11.8255025 13.8283843 13.7049959 12.1744975 16.9969541"></polygon>
            <polygon id="Star-Copy" points="24.2950041 13.8283843 21.0030459 12.1744975 24.1716157 10.2950041 25.8255025 7.00304586 27.7049959 10.1716157 30.9969541 11.8255025 27.8283843 13.7049959 26.1744975 16.9969541"></polygon>
            <polygon id="Star-Copy-2" points="24.2950041 27.8283843 21.0030459 26.1744975 24.1716157 24.2950041 25.8255025 21.0030459 27.7049959 24.1716157 30.9969541 25.8255025 27.8283843 27.7049959 26.1744975 30.9969541"></polygon>
            <polygon id="Star-Copy-3" points="10.2950041 27.8283843 7.00304586 26.1744975 10.1716157 24.2950041 11.8255025 21.0030459 13.7049959 24.1716157 16.9969541 25.8255025 13.8283843 27.7049959 12.1744975 30.9969541"></polygon>
        </g>
        <path d="M17.1796875,3.97070312 C18.7473958,6.47167969 20.3151042,8.97265625 21.8828125,11.4736328" id="Path" stroke="#044FD9"></path>
        <path d="M16.5380859,10.9697266 C18.4580078,9.18782552 20.3779297,7.40592448 22.2978516,5.62402344" id="Path-2" stroke="#044FD9"></path>
        <path d="M4.85644531,17.8476562 C6.38932292,19.8284505 7.92220052,21.8092448 9.45507812,23.7900391" id="Path-3" stroke="#044FD9"></path>
        <path d="M4.51464844,24.2548828 C6.0563151,22.8320312 7.59798177,21.4091797 9.13964844,19.9863281" id="Path-4" stroke="#044FD9"></path>
        <path d="M31.8623047,18.4335938 C36.4883025,20.680114 34.2046833,18.9617836 37.9384766,24.4824219" id="Path-9" stroke="#044FD9"></path>
        <path d="M32.2177734,24.5556641 C33.8531902,22.6770832 35.4886067,20.7985027 37.1240234,18.9199219" id="Path-10" stroke="#044FD9"></path>
        <path d="M17.3232422,31.890625 C19.529297,34.2262371 21.7353514,36.5618488 23.9414062,38.8974609" id="Path-5" stroke="#044FD9"></path>
        <path d="M17.3320312,39.8476562 C19.2353517,37.6360676 21.1386718,35.4244793 23.0419922,33.2128906" id="Path-6" stroke="#044FD9"></path>
    </g>
</svg>