<?xml version="1.0" encoding="UTF-8"?>
<svg width="120px" height="120px" viewBox="0 0 120 120" version="1.1" xmlns="http://www.w3.org/2000/svg" xmlns:xlink="http://www.w3.org/1999/xlink">
    <title>Artboard</title>
    <g id="Artboard" stroke="none" stroke-width="1" fill="none" fill-rule="evenodd">
        <g id="Group" transform="translate(2.000000, 2.000000)" fill="#D90429">
            <path d="M78,0 C79.1045695,0 80,0.8954305 80,2 L80,114 C80,115.104569 79.1045695,116 78,116 C76.8954305,116 76,115.104569 76,114 L76,2 C76,0.8954305 76.8954305,0 78,0 Z" id="Rectangle"></path>
            <path d="M116,78 C116,79.1045695 115.104569,80 114,80 L2,80 C0.8954305,80 0,79.1045695 0,78 C0,76.8954305 0.8954305,76 2,76 L114,76 C115.104569,76 116,76.8954305 116,78 Z" id="Rectangle-Copy-2"></path>
            <path d="M116,38 C116,39.1045695 115.104569,40 114,40 L2,40 C0.8954305,40 0,39.1045695 0,38 C0,36.8954305 0.8954305,36 2,36 L114,36 C115.104569,36 116,36.8954305 116,38 Z" id="Rectangle-Copy-3"></path>
            <path d="M38,0 C39.1045695,0 40,0.8954305 40,2 L40,114 C40,115.104569 39.1045695,116 38,116 C36.8954305,116 36,115.104569 36,114 L36,2 C36,0.8954305 36.8954305,0 38,0 Z" id="Rectangle-Copy"></path>
            <polygon id="Star" transform="translate(38.000000, 38.000000) rotate(46.000000) translate(-38.000000, -38.000000) " points="38 43.3945312 29.5147186 46.4852814 32.6054688 38 29.5147186 29.5147186 38 32.6054688 46.4852814 29.5147186 43.3945312 38 46.4852814 46.4852814"></polygon>
            <polygon id="Star-Copy" transform="translate(78.000000, 38.000000) rotate(46.000000) translate(-78.000000, -38.000000) " points="78 43.3945312 69.5147186 46.4852814 72.6054688 38 69.5147186 29.5147186 78 32.6054688 86.4852814 29.5147186 83.3945312 38 86.4852814 46.4852814"></polygon>
            <polygon id="Star-Copy-2" transform="translate(78.000000, 78.000000) rotate(46.000000) translate(-78.000000, -78.000000) " points="78 83.3945312 69.5147186 86.4852814 72.6054688 78 69.5147186 69.5147186 78 72.6054688 86.4852814 69.5147186 83.3945312 78 86.4852814 86.4852814"></polygon>
            <polygon id="Star-Copy-3" transform="translate(38.000000, 78.000000) rotate(46.000000) translate(-38.000000, -78.000000) " points="38 83.3945312 29.5147186 86.4852814 32.6054688 78 29.5147186 69.5147186 38 72.6054688 46.4852814 69.5147186 43.3945312 78 46.4852814 86.4852814"></polygon>
        </g>
    </g>
</svg>